<svg width="318" height="398" viewBox="0 0 318 398" fill="none" xmlns="http://www.w3.org/2000/svg">
<path d="M8 4C8 6.20911 6.20914 8 4 8C1.79086 8 0 6.20911 0 4C0 1.79089 1.79086 0 4 0C6.20914 0 8 1.79089 8 4Z" fill="#DBDBDB"/>
<path d="M39 4C39 6.20911 37.2091 8 35 8C32.7909 8 31 6.20911 31 4C31 1.79089 32.7909 0 35 0C37.2091 0 39 1.79089 39 4Z" fill="#DBDBDB"/>
<path d="M70 4C70 6.20911 68.2091 8 66 8C63.7909 8 62 6.20911 62 4C62 1.79089 63.7909 0 66 0C68.2091 0 70 1.79089 70 4Z" fill="#DBDBDB"/>
<path d="M101 4C101 6.20911 99.2091 8 97 8C94.7909 8 93 6.20911 93 4C93 1.79089 94.7909 0 97 0C99.2091 0 101 1.79089 101 4Z" fill="#DBDBDB"/>
<path d="M132 4C132 6.20911 130.209 8 128 8C125.791 8 124 6.20911 124 4C124 1.79089 125.791 0 128 0C130.209 0 132 1.79089 132 4Z" fill="#DBDBDB"/>
<path d="M163 4C163 6.20911 161.209 8 159 8C156.791 8 155 6.20911 155 4C155 1.79089 156.791 0 159 0C161.209 0 163 1.79089 163 4Z" fill="#DBDBDB"/>
<path d="M194 4C194 6.20911 192.209 8 190 8C187.791 8 186 6.20911 186 4C186 1.79089 187.791 0 190 0C192.209 0 194 1.79089 194 4Z" fill="#DBDBDB"/>
<path d="M225 4C225 6.20911 223.209 8 221 8C218.791 8 217 6.20911 217 4C217 1.79089 218.791 0 221 0C223.209 0 225 1.79089 225 4Z" fill="#DBDBDB"/>
<path d="M256 4C256 6.20911 254.209 8 252 8C249.791 8 248 6.20911 248 4C248 1.79089 249.791 0 252 0C254.209 0 256 1.79089 256 4Z" fill="#DBDBDB"/>
<path d="M287 4C287 6.20911 285.209 8 283 8C280.791 8 279 6.20911 279 4C279 1.79089 280.791 0 283 0C285.209 0 287 1.79089 287 4Z" fill="#DBDBDB"/>
<path d="M318 4C318 6.20911 316.209 8 314 8C311.791 8 310 6.20911 310 4C310 1.79089 311.791 0 314 0C316.209 0 318 1.79089 318 4Z" fill="#DBDBDB"/>
<path d="M8 34C8 36.2091 6.20914 38 4 38C1.79086 38 0 36.2091 0 34C0 31.7909 1.79086 30 4 30C6.20914 30 8 31.7909 8 34Z" fill="#DBDBDB"/>
<path d="M39 34C39 36.2091 37.2091 38 35 38C32.7909 38 31 36.2091 31 34C31 31.7909 32.7909 30 35 30C37.2091 30 39 31.7909 39 34Z" fill="#DBDBDB"/>
<path d="M70 34C70 36.2091 68.2091 38 66 38C63.7909 38 62 36.2091 62 34C62 31.7909 63.7909 30 66 30C68.2091 30 70 31.7909 70 34Z" fill="#DBDBDB"/>
<path d="M101 34C101 36.2091 99.2091 38 97 38C94.7909 38 93 36.2091 93 34C93 31.7909 94.7909 30 97 30C99.2091 30 101 31.7909 101 34Z" fill="#DBDBDB"/>
<path d="M132 34C132 36.2091 130.209 38 128 38C125.791 38 124 36.2091 124 34C124 31.7909 125.791 30 128 30C130.209 30 132 31.7909 132 34Z" fill="#DBDBDB"/>
<path d="M163 34C163 36.2091 161.209 38 159 38C156.791 38 155 36.2091 155 34C155 31.7909 156.791 30 159 30C161.209 30 163 31.7909 163 34Z" fill="#DBDBDB"/>
<path d="M194 34C194 36.2091 192.209 38 190 38C187.791 38 186 36.2091 186 34C186 31.7909 187.791 30 190 30C192.209 30 194 31.7909 194 34Z" fill="#DBDBDB"/>
<path d="M225 34C225 36.2091 223.209 38 221 38C218.791 38 217 36.2091 217 34C217 31.7909 218.791 30 221 30C223.209 30 225 31.7909 225 34Z" fill="#DBDBDB"/>
<path d="M256 34C256 36.2091 254.209 38 252 38C249.791 38 248 36.2091 248 34C248 31.7909 249.791 30 252 30C254.209 30 256 31.7909 256 34Z" fill="#DBDBDB"/>
<path d="M287 34C287 36.2091 285.209 38 283 38C280.791 38 279 36.2091 279 34C279 31.7909 280.791 30 283 30C285.209 30 287 31.7909 287 34Z" fill="#DBDBDB"/>
<path d="M318 34C318 36.2091 316.209 38 314 38C311.791 38 310 36.2091 310 34C310 31.7909 311.791 30 314 30C316.209 30 318 31.7909 318 34Z" fill="#DBDBDB"/>
<path d="M4 68C6.20914 68 8 66.2091 8 64C8 61.7909 6.20914 60 4 60C1.79086 60 0 61.7909 0 64C0 66.2091 1.79086 68 4 68Z" fill="#DBDBDB"/>
<path d="M35 68C37.2091 68 39 66.2091 39 64C39 61.7909 37.2091 60 35 60C32.7909 60 31 61.7909 31 64C31 66.2091 32.7909 68 35 68Z" fill="#DBDBDB"/>
<path d="M66 68C68.2091 68 70 66.2091 70 64C70 61.7909 68.2091 60 66 60C63.7909 60 62 61.7909 62 64C62 66.2091 63.7909 68 66 68Z" fill="#DBDBDB"/>
<path d="M97 68C99.2091 68 101 66.2091 101 64C101 61.7909 99.2091 60 97 60C94.7909 60 93 61.7909 93 64C93 66.2091 94.7909 68 97 68Z" fill="#DBDBDB"/>
<path d="M128 68C130.209 68 132 66.2091 132 64C132 61.7909 130.209 60 128 60C125.791 60 124 61.7909 124 64C124 66.2091 125.791 68 128 68Z" fill="#DBDBDB"/>
<path d="M159 68C161.209 68 163 66.2091 163 64C163 61.7909 161.209 60 159 60C156.791 60 155 61.7909 155 64C155 66.2091 156.791 68 159 68Z" fill="#DBDBDB"/>
<path d="M190 68C192.209 68 194 66.2091 194 64C194 61.7909 192.209 60 190 60C187.791 60 186 61.7909 186 64C186 66.2091 187.791 68 190 68Z" fill="#DBDBDB"/>
<path d="M221 68C223.209 68 225 66.2091 225 64C225 61.7909 223.209 60 221 60C218.791 60 217 61.7909 217 64C217 66.2091 218.791 68 221 68Z" fill="#DBDBDB"/>
<path d="M252 68C254.209 68 256 66.2091 256 64C256 61.7909 254.209 60 252 60C249.791 60 248 61.7909 248 64C248 66.2091 249.791 68 252 68Z" fill="#DBDBDB"/>
<path d="M283 68C285.209 68 287 66.2091 287 64C287 61.7909 285.209 60 283 60C280.791 60 279 61.7909 279 64C279 66.2091 280.791 68 283 68Z" fill="#DBDBDB"/>
<path d="M314 68C316.209 68 318 66.2091 318 64C318 61.7909 316.209 60 314 60C311.791 60 310 61.7909 310 64C310 66.2091 311.791 68 314 68Z" fill="#DBDBDB"/>
<path d="M8 94C8 96.2091 6.20914 98 4 98C1.79086 98 0 96.2091 0 94C0 91.7909 1.79086 90 4 90C6.20914 90 8 91.7909 8 94Z" fill="#DBDBDB"/>
<path d="M39 94C39 96.2091 37.2091 98 35 98C32.7909 98 31 96.2091 31 94C31 91.7909 32.7909 90 35 90C37.2091 90 39 91.7909 39 94Z" fill="#DBDBDB"/>
<path d="M70 94C70 96.2091 68.2091 98 66 98C63.7909 98 62 96.2091 62 94C62 91.7909 63.7909 90 66 90C68.2091 90 70 91.7909 70 94Z" fill="#DBDBDB"/>
<path d="M101 94C101 96.2091 99.2091 98 97 98C94.7909 98 93 96.2091 93 94C93 91.7909 94.7909 90 97 90C99.2091 90 101 91.7909 101 94Z" fill="#DBDBDB"/>
<path d="M132 94C132 96.2091 130.209 98 128 98C125.791 98 124 96.2091 124 94C124 91.7909 125.791 90 128 90C130.209 90 132 91.7909 132 94Z" fill="#DBDBDB"/>
<path d="M163 94C163 96.2091 161.209 98 159 98C156.791 98 155 96.2091 155 94C155 91.7909 156.791 90 159 90C161.209 90 163 91.7909 163 94Z" fill="#DBDBDB"/>
<path d="M194 94C194 96.2091 192.209 98 190 98C187.791 98 186 96.2091 186 94C186 91.7909 187.791 90 190 90C192.209 90 194 91.7909 194 94Z" fill="#DBDBDB"/>
<path d="M225 94C225 96.2091 223.209 98 221 98C218.791 98 217 96.2091 217 94C217 91.7909 218.791 90 221 90C223.209 90 225 91.7909 225 94Z" fill="#DBDBDB"/>
<path d="M256 94C256 96.2091 254.209 98 252 98C249.791 98 248 96.2091 248 94C248 91.7909 249.791 90 252 90C254.209 90 256 91.7909 256 94Z" fill="#DBDBDB"/>
<path d="M287 94C287 96.2091 285.209 98 283 98C280.791 98 279 96.2091 279 94C279 91.7909 280.791 90 283 90C285.209 90 287 91.7909 287 94Z" fill="#DBDBDB"/>
<path d="M318 94C318 96.2091 316.209 98 314 98C311.791 98 310 96.2091 310 94C310 91.7909 311.791 90 314 90C316.209 90 318 91.7909 318 94Z" fill="#DBDBDB"/>
<path d="M4 128C6.20914 128 8 126.209 8 124C8 121.791 6.20914 120 4 120C1.79086 120 0 121.791 0 124C0 126.209 1.79086 128 4 128Z" fill="#DBDBDB"/>
<path d="M35 128C37.2091 128 39 126.209 39 124C39 121.791 37.2091 120 35 120C32.7909 120 31 121.791 31 124C31 126.209 32.7909 128 35 128Z" fill="#DBDBDB"/>
<path d="M66 128C68.2091 128 70 126.209 70 124C70 121.791 68.2091 120 66 120C63.7909 120 62 121.791 62 124C62 126.209 63.7909 128 66 128Z" fill="#DBDBDB"/>
<path d="M97 128C99.2091 128 101 126.209 101 124C101 121.791 99.2091 120 97 120C94.7909 120 93 121.791 93 124C93 126.209 94.7909 128 97 128Z" fill="#DBDBDB"/>
<path d="M128 128C130.209 128 132 126.209 132 124C132 121.791 130.209 120 128 120C125.791 120 124 121.791 124 124C124 126.209 125.791 128 128 128Z" fill="#DBDBDB"/>
<path d="M159 128C161.209 128 163 126.209 163 124C163 121.791 161.209 120 159 120C156.791 120 155 121.791 155 124C155 126.209 156.791 128 159 128Z" fill="#DBDBDB"/>
<path d="M190 128C192.209 128 194 126.209 194 124C194 121.791 192.209 120 190 120C187.791 120 186 121.791 186 124C186 126.209 187.791 128 190 128Z" fill="#DBDBDB"/>
<path d="M221 128C223.209 128 225 126.209 225 124C225 121.791 223.209 120 221 120C218.791 120 217 121.791 217 124C217 126.209 218.791 128 221 128Z" fill="#DBDBDB"/>
<path d="M252 128C254.209 128 256 126.209 256 124C256 121.791 254.209 120 252 120C249.791 120 248 121.791 248 124C248 126.209 249.791 128 252 128Z" fill="#DBDBDB"/>
<path d="M283 128C285.209 128 287 126.209 287 124C287 121.791 285.209 120 283 120C280.791 120 279 121.791 279 124C279 126.209 280.791 128 283 128Z" fill="#DBDBDB"/>
<path d="M314 128C316.209 128 318 126.209 318 124C318 121.791 316.209 120 314 120C311.791 120 310 121.791 310 124C310 126.209 311.791 128 314 128Z" fill="#DBDBDB"/>
<path d="M8 154C8 156.209 6.20914 158 4 158C1.79086 158 0 156.209 0 154C0 151.791 1.79086 150 4 150C6.20914 150 8 151.791 8 154Z" fill="#DBDBDB"/>
<path d="M39 154C39 156.209 37.2091 158 35 158C32.7909 158 31 156.209 31 154C31 151.791 32.7909 150 35 150C37.2091 150 39 151.791 39 154Z" fill="#DBDBDB"/>
<path d="M70 154C70 156.209 68.2091 158 66 158C63.7909 158 62 156.209 62 154C62 151.791 63.7909 150 66 150C68.2091 150 70 151.791 70 154Z" fill="#DBDBDB"/>
<path d="M101 154C101 156.209 99.2091 158 97 158C94.7909 158 93 156.209 93 154C93 151.791 94.7909 150 97 150C99.2091 150 101 151.791 101 154Z" fill="#DBDBDB"/>
<path d="M132 154C132 156.209 130.209 158 128 158C125.791 158 124 156.209 124 154C124 151.791 125.791 150 128 150C130.209 150 132 151.791 132 154Z" fill="#DBDBDB"/>
<path d="M163 154C163 156.209 161.209 158 159 158C156.791 158 155 156.209 155 154C155 151.791 156.791 150 159 150C161.209 150 163 151.791 163 154Z" fill="#DBDBDB"/>
<path d="M194 154C194 156.209 192.209 158 190 158C187.791 158 186 156.209 186 154C186 151.791 187.791 150 190 150C192.209 150 194 151.791 194 154Z" fill="#DBDBDB"/>
<path d="M225 154C225 156.209 223.209 158 221 158C218.791 158 217 156.209 217 154C217 151.791 218.791 150 221 150C223.209 150 225 151.791 225 154Z" fill="#DBDBDB"/>
<path d="M256 154C256 156.209 254.209 158 252 158C249.791 158 248 156.209 248 154C248 151.791 249.791 150 252 150C254.209 150 256 151.791 256 154Z" fill="#DBDBDB"/>
<path d="M287 154C287 156.209 285.209 158 283 158C280.791 158 279 156.209 279 154C279 151.791 280.791 150 283 150C285.209 150 287 151.791 287 154Z" fill="#DBDBDB"/>
<path d="M318 154C318 156.209 316.209 158 314 158C311.791 158 310 156.209 310 154C310 151.791 311.791 150 314 150C316.209 150 318 151.791 318 154Z" fill="#DBDBDB"/>
<path d="M4 188C6.20914 188 8 186.209 8 184C8 181.791 6.20914 180 4 180C1.79086 180 0 181.791 0 184C0 186.209 1.79086 188 4 188Z" fill="#DBDBDB"/>
<path d="M35 188C37.2091 188 39 186.209 39 184C39 181.791 37.2091 180 35 180C32.7909 180 31 181.791 31 184C31 186.209 32.7909 188 35 188Z" fill="#DBDBDB"/>
<path d="M66 188C68.2091 188 70 186.209 70 184C70 181.791 68.2091 180 66 180C63.7909 180 62 181.791 62 184C62 186.209 63.7909 188 66 188Z" fill="#DBDBDB"/>
<path d="M97 188C99.2091 188 101 186.209 101 184C101 181.791 99.2091 180 97 180C94.7909 180 93 181.791 93 184C93 186.209 94.7909 188 97 188Z" fill="#DBDBDB"/>
<path d="M128 188C130.209 188 132 186.209 132 184C132 181.791 130.209 180 128 180C125.791 180 124 181.791 124 184C124 186.209 125.791 188 128 188Z" fill="#DBDBDB"/>
<path d="M159 188C161.209 188 163 186.209 163 184C163 181.791 161.209 180 159 180C156.791 180 155 181.791 155 184C155 186.209 156.791 188 159 188Z" fill="#DBDBDB"/>
<path d="M190 188C192.209 188 194 186.209 194 184C194 181.791 192.209 180 190 180C187.791 180 186 181.791 186 184C186 186.209 187.791 188 190 188Z" fill="#DBDBDB"/>
<path d="M221 188C223.209 188 225 186.209 225 184C225 181.791 223.209 180 221 180C218.791 180 217 181.791 217 184C217 186.209 218.791 188 221 188Z" fill="#DBDBDB"/>
<path d="M252 188C254.209 188 256 186.209 256 184C256 181.791 254.209 180 252 180C249.791 180 248 181.791 248 184C248 186.209 249.791 188 252 188Z" fill="#DBDBDB"/>
<path d="M283 188C285.209 188 287 186.209 287 184C287 181.791 285.209 180 283 180C280.791 180 279 181.791 279 184C279 186.209 280.791 188 283 188Z" fill="#DBDBDB"/>
<path d="M314 188C316.209 188 318 186.209 318 184C318 181.791 316.209 180 314 180C311.791 180 310 181.791 310 184C310 186.209 311.791 188 314 188Z" fill="#DBDBDB"/>
<path d="M8 214C8 216.209 6.20914 218 4 218C1.79086 218 0 216.209 0 214C0 211.791 1.79086 210 4 210C6.20914 210 8 211.791 8 214Z" fill="#DBDBDB"/>
<path d="M39 214C39 216.209 37.2091 218 35 218C32.7909 218 31 216.209 31 214C31 211.791 32.7909 210 35 210C37.2091 210 39 211.791 39 214Z" fill="#DBDBDB"/>
<path d="M70 214C70 216.209 68.2091 218 66 218C63.7909 218 62 216.209 62 214C62 211.791 63.7909 210 66 210C68.2091 210 70 211.791 70 214Z" fill="#DBDBDB"/>
<path d="M101 214C101 216.209 99.2091 218 97 218C94.7909 218 93 216.209 93 214C93 211.791 94.7909 210 97 210C99.2091 210 101 211.791 101 214Z" fill="#DBDBDB"/>
<path d="M132 214C132 216.209 130.209 218 128 218C125.791 218 124 216.209 124 214C124 211.791 125.791 210 128 210C130.209 210 132 211.791 132 214Z" fill="#DBDBDB"/>
<path d="M163 214C163 216.209 161.209 218 159 218C156.791 218 155 216.209 155 214C155 211.791 156.791 210 159 210C161.209 210 163 211.791 163 214Z" fill="#DBDBDB"/>
<path d="M194 214C194 216.209 192.209 218 190 218C187.791 218 186 216.209 186 214C186 211.791 187.791 210 190 210C192.209 210 194 211.791 194 214Z" fill="#DBDBDB"/>
<path d="M225 214C225 216.209 223.209 218 221 218C218.791 218 217 216.209 217 214C217 211.791 218.791 210 221 210C223.209 210 225 211.791 225 214Z" fill="#DBDBDB"/>
<path d="M256 214C256 216.209 254.209 218 252 218C249.791 218 248 216.209 248 214C248 211.791 249.791 210 252 210C254.209 210 256 211.791 256 214Z" fill="#DBDBDB"/>
<path d="M287 214C287 216.209 285.209 218 283 218C280.791 218 279 216.209 279 214C279 211.791 280.791 210 283 210C285.209 210 287 211.791 287 214Z" fill="#DBDBDB"/>
<path d="M318 214C318 216.209 316.209 218 314 218C311.791 218 310 216.209 310 214C310 211.791 311.791 210 314 210C316.209 210 318 211.791 318 214Z" fill="#DBDBDB"/>
<path d="M4 248C6.20914 248 8 246.209 8 244C8 241.791 6.20914 240 4 240C1.79086 240 0 241.791 0 244C0 246.209 1.79086 248 4 248Z" fill="#DBDBDB"/>
<path d="M35 248C37.2091 248 39 246.209 39 244C39 241.791 37.2091 240 35 240C32.7909 240 31 241.791 31 244C31 246.209 32.7909 248 35 248Z" fill="#DBDBDB"/>
<path d="M66 248C68.2091 248 70 246.209 70 244C70 241.791 68.2091 240 66 240C63.7909 240 62 241.791 62 244C62 246.209 63.7909 248 66 248Z" fill="#DBDBDB"/>
<path d="M97 248C99.2091 248 101 246.209 101 244C101 241.791 99.2091 240 97 240C94.7909 240 93 241.791 93 244C93 246.209 94.7909 248 97 248Z" fill="#DBDBDB"/>
<path d="M128 248C130.209 248 132 246.209 132 244C132 241.791 130.209 240 128 240C125.791 240 124 241.791 124 244C124 246.209 125.791 248 128 248Z" fill="#DBDBDB"/>
<path d="M159 248C161.209 248 163 246.209 163 244C163 241.791 161.209 240 159 240C156.791 240 155 241.791 155 244C155 246.209 156.791 248 159 248Z" fill="#DBDBDB"/>
<path d="M190 248C192.209 248 194 246.209 194 244C194 241.791 192.209 240 190 240C187.791 240 186 241.791 186 244C186 246.209 187.791 248 190 248Z" fill="#DBDBDB"/>
<path d="M221 248C223.209 248 225 246.209 225 244C225 241.791 223.209 240 221 240C218.791 240 217 241.791 217 244C217 246.209 218.791 248 221 248Z" fill="#DBDBDB"/>
<path d="M252 248C254.209 248 256 246.209 256 244C256 241.791 254.209 240 252 240C249.791 240 248 241.791 248 244C248 246.209 249.791 248 252 248Z" fill="#DBDBDB"/>
<path d="M283 248C285.209 248 287 246.209 287 244C287 241.791 285.209 240 283 240C280.791 240 279 241.791 279 244C279 246.209 280.791 248 283 248Z" fill="#DBDBDB"/>
<path d="M314 248C316.209 248 318 246.209 318 244C318 241.791 316.209 240 314 240C311.791 240 310 241.791 310 244C310 246.209 311.791 248 314 248Z" fill="#DBDBDB"/>
<path d="M8 274C8 276.209 6.20914 278 4 278C1.79086 278 0 276.209 0 274C0 271.791 1.79086 270 4 270C6.20914 270 8 271.791 8 274Z" fill="#DBDBDB"/>
<path d="M39 274C39 276.209 37.2091 278 35 278C32.7909 278 31 276.209 31 274C31 271.791 32.7909 270 35 270C37.2091 270 39 271.791 39 274Z" fill="#DBDBDB"/>
<path d="M70 274C70 276.209 68.2091 278 66 278C63.7909 278 62 276.209 62 274C62 271.791 63.7909 270 66 270C68.2091 270 70 271.791 70 274Z" fill="#DBDBDB"/>
<path d="M101 274C101 276.209 99.2091 278 97 278C94.7909 278 93 276.209 93 274C93 271.791 94.7909 270 97 270C99.2091 270 101 271.791 101 274Z" fill="#DBDBDB"/>
<path d="M132 274C132 276.209 130.209 278 128 278C125.791 278 124 276.209 124 274C124 271.791 125.791 270 128 270C130.209 270 132 271.791 132 274Z" fill="#DBDBDB"/>
<path d="M163 274C163 276.209 161.209 278 159 278C156.791 278 155 276.209 155 274C155 271.791 156.791 270 159 270C161.209 270 163 271.791 163 274Z" fill="#DBDBDB"/>
<path d="M194 274C194 276.209 192.209 278 190 278C187.791 278 186 276.209 186 274C186 271.791 187.791 270 190 270C192.209 270 194 271.791 194 274Z" fill="#DBDBDB"/>
<path d="M225 274C225 276.209 223.209 278 221 278C218.791 278 217 276.209 217 274C217 271.791 218.791 270 221 270C223.209 270 225 271.791 225 274Z" fill="#DBDBDB"/>
<path d="M256 274C256 276.209 254.209 278 252 278C249.791 278 248 276.209 248 274C248 271.791 249.791 270 252 270C254.209 270 256 271.791 256 274Z" fill="#DBDBDB"/>
<path d="M287 274C287 276.209 285.209 278 283 278C280.791 278 279 276.209 279 274C279 271.791 280.791 270 283 270C285.209 270 287 271.791 287 274Z" fill="#DBDBDB"/>
<path d="M318 274C318 276.209 316.209 278 314 278C311.791 278 310 276.209 310 274C310 271.791 311.791 270 314 270C316.209 270 318 271.791 318 274Z" fill="#DBDBDB"/>
<path d="M4 308C6.20914 308 8 306.209 8 304C8 301.791 6.20914 300 4 300C1.79086 300 0 301.791 0 304C0 306.209 1.79086 308 4 308Z" fill="#DBDBDB"/>
<path d="M35 308C37.2091 308 39 306.209 39 304C39 301.791 37.2091 300 35 300C32.7909 300 31 301.791 31 304C31 306.209 32.7909 308 35 308Z" fill="#DBDBDB"/>
<path d="M66 308C68.2091 308 70 306.209 70 304C70 301.791 68.2091 300 66 300C63.7909 300 62 301.791 62 304C62 306.209 63.7909 308 66 308Z" fill="#DBDBDB"/>
<path d="M97 308C99.2091 308 101 306.209 101 304C101 301.791 99.2091 300 97 300C94.7909 300 93 301.791 93 304C93 306.209 94.7909 308 97 308Z" fill="#DBDBDB"/>
<path d="M128 308C130.209 308 132 306.209 132 304C132 301.791 130.209 300 128 300C125.791 300 124 301.791 124 304C124 306.209 125.791 308 128 308Z" fill="#DBDBDB"/>
<path d="M159 308C161.209 308 163 306.209 163 304C163 301.791 161.209 300 159 300C156.791 300 155 301.791 155 304C155 306.209 156.791 308 159 308Z" fill="#DBDBDB"/>
<path d="M190 308C192.209 308 194 306.209 194 304C194 301.791 192.209 300 190 300C187.791 300 186 301.791 186 304C186 306.209 187.791 308 190 308Z" fill="#DBDBDB"/>
<path d="M221 308C223.209 308 225 306.209 225 304C225 301.791 223.209 300 221 300C218.791 300 217 301.791 217 304C217 306.209 218.791 308 221 308Z" fill="#DBDBDB"/>
<path d="M252 308C254.209 308 256 306.209 256 304C256 301.791 254.209 300 252 300C249.791 300 248 301.791 248 304C248 306.209 249.791 308 252 308Z" fill="#DBDBDB"/>
<path d="M283 308C285.209 308 287 306.209 287 304C287 301.791 285.209 300 283 300C280.791 300 279 301.791 279 304C279 306.209 280.791 308 283 308Z" fill="#DBDBDB"/>
<path d="M314 308C316.209 308 318 306.209 318 304C318 301.791 316.209 300 314 300C311.791 300 310 301.791 310 304C310 306.209 311.791 308 314 308Z" fill="#DBDBDB"/>
<path d="M8 334C8 336.209 6.20914 338 4 338C1.79086 338 0 336.209 0 334C0 331.791 1.79086 330 4 330C6.20914 330 8 331.791 8 334Z" fill="#DBDBDB"/>
<path d="M39 334C39 336.209 37.2091 338 35 338C32.7909 338 31 336.209 31 334C31 331.791 32.7909 330 35 330C37.2091 330 39 331.791 39 334Z" fill="#DBDBDB"/>
<path d="M70 334C70 336.209 68.2091 338 66 338C63.7909 338 62 336.209 62 334C62 331.791 63.7909 330 66 330C68.2091 330 70 331.791 70 334Z" fill="#DBDBDB"/>
<path d="M101 334C101 336.209 99.2091 338 97 338C94.7909 338 93 336.209 93 334C93 331.791 94.7909 330 97 330C99.2091 330 101 331.791 101 334Z" fill="#DBDBDB"/>
<path d="M132 334C132 336.209 130.209 338 128 338C125.791 338 124 336.209 124 334C124 331.791 125.791 330 128 330C130.209 330 132 331.791 132 334Z" fill="#DBDBDB"/>
<path d="M163 334C163 336.209 161.209 338 159 338C156.791 338 155 336.209 155 334C155 331.791 156.791 330 159 330C161.209 330 163 331.791 163 334Z" fill="#DBDBDB"/>
<path d="M194 334C194 336.209 192.209 338 190 338C187.791 338 186 336.209 186 334C186 331.791 187.791 330 190 330C192.209 330 194 331.791 194 334Z" fill="#DBDBDB"/>
<path d="M225 334C225 336.209 223.209 338 221 338C218.791 338 217 336.209 217 334C217 331.791 218.791 330 221 330C223.209 330 225 331.791 225 334Z" fill="#DBDBDB"/>
<path d="M256 334C256 336.209 254.209 338 252 338C249.791 338 248 336.209 248 334C248 331.791 249.791 330 252 330C254.209 330 256 331.791 256 334Z" fill="#DBDBDB"/>
<path d="M287 334C287 336.209 285.209 338 283 338C280.791 338 279 336.209 279 334C279 331.791 280.791 330 283 330C285.209 330 287 331.791 287 334Z" fill="#DBDBDB"/>
<path d="M318 334C318 336.209 316.209 338 314 338C311.791 338 310 336.209 310 334C310 331.791 311.791 330 314 330C316.209 330 318 331.791 318 334Z" fill="#DBDBDB"/>
<path d="M4 368C6.20914 368 8 366.209 8 364C8 361.791 6.20914 360 4 360C1.79086 360 0 361.791 0 364C0 366.209 1.79086 368 4 368Z" fill="#DBDBDB"/>
<path d="M35 368C37.2091 368 39 366.209 39 364C39 361.791 37.2091 360 35 360C32.7909 360 31 361.791 31 364C31 366.209 32.7909 368 35 368Z" fill="#DBDBDB"/>
<path d="M66 368C68.2091 368 70 366.209 70 364C70 361.791 68.2091 360 66 360C63.7909 360 62 361.791 62 364C62 366.209 63.7909 368 66 368Z" fill="#DBDBDB"/>
<path d="M97 368C99.2091 368 101 366.209 101 364C101 361.791 99.2091 360 97 360C94.7909 360 93 361.791 93 364C93 366.209 94.7909 368 97 368Z" fill="#DBDBDB"/>
<path d="M128 368C130.209 368 132 366.209 132 364C132 361.791 130.209 360 128 360C125.791 360 124 361.791 124 364C124 366.209 125.791 368 128 368Z" fill="#DBDBDB"/>
<path d="M159 368C161.209 368 163 366.209 163 364C163 361.791 161.209 360 159 360C156.791 360 155 361.791 155 364C155 366.209 156.791 368 159 368Z" fill="#DBDBDB"/>
<path d="M190 368C192.209 368 194 366.209 194 364C194 361.791 192.209 360 190 360C187.791 360 186 361.791 186 364C186 366.209 187.791 368 190 368Z" fill="#DBDBDB"/>
<path d="M221 368C223.209 368 225 366.209 225 364C225 361.791 223.209 360 221 360C218.791 360 217 361.791 217 364C217 366.209 218.791 368 221 368Z" fill="#DBDBDB"/>
<path d="M252 368C254.209 368 256 366.209 256 364C256 361.791 254.209 360 252 360C249.791 360 248 361.791 248 364C248 366.209 249.791 368 252 368Z" fill="#DBDBDB"/>
<path d="M283 368C285.209 368 287 366.209 287 364C287 361.791 285.209 360 283 360C280.791 360 279 361.791 279 364C279 366.209 280.791 368 283 368Z" fill="#DBDBDB"/>
<path d="M314 368C316.209 368 318 366.209 318 364C318 361.791 316.209 360 314 360C311.791 360 310 361.791 310 364C310 366.209 311.791 368 314 368Z" fill="#DBDBDB"/>
<path d="M8 394C8 396.209 6.20914 398 4 398C1.79086 398 0 396.209 0 394C0 391.791 1.79086 390 4 390C6.20914 390 8 391.791 8 394Z" fill="#DBDBDB"/>
<path d="M39 394C39 396.209 37.2091 398 35 398C32.7909 398 31 396.209 31 394C31 391.791 32.7909 390 35 390C37.2091 390 39 391.791 39 394Z" fill="#DBDBDB"/>
<path d="M70 394C70 396.209 68.2091 398 66 398C63.7909 398 62 396.209 62 394C62 391.791 63.7909 390 66 390C68.2091 390 70 391.791 70 394Z" fill="#DBDBDB"/>
<path d="M101 394C101 396.209 99.2091 398 97 398C94.7909 398 93 396.209 93 394C93 391.791 94.7909 390 97 390C99.2091 390 101 391.791 101 394Z" fill="#DBDBDB"/>
<path d="M132 394C132 396.209 130.209 398 128 398C125.791 398 124 396.209 124 394C124 391.791 125.791 390 128 390C130.209 390 132 391.791 132 394Z" fill="#DBDBDB"/>
<path d="M163 394C163 396.209 161.209 398 159 398C156.791 398 155 396.209 155 394C155 391.791 156.791 390 159 390C161.209 390 163 391.791 163 394Z" fill="#DBDBDB"/>
<path d="M194 394C194 396.209 192.209 398 190 398C187.791 398 186 396.209 186 394C186 391.791 187.791 390 190 390C192.209 390 194 391.791 194 394Z" fill="#DBDBDB"/>
<path d="M225 394C225 396.209 223.209 398 221 398C218.791 398 217 396.209 217 394C217 391.791 218.791 390 221 390C223.209 390 225 391.791 225 394Z" fill="#DBDBDB"/>
<path d="M256 394C256 396.209 254.209 398 252 398C249.791 398 248 396.209 248 394C248 391.791 249.791 390 252 390C254.209 390 256 391.791 256 394Z" fill="#DBDBDB"/>
<path d="M287 394C287 396.209 285.209 398 283 398C280.791 398 279 396.209 279 394C279 391.791 280.791 390 283 390C285.209 390 287 391.791 287 394Z" fill="#DBDBDB"/>
<path d="M318 394C318 396.209 316.209 398 314 398C311.791 398 310 396.209 310 394C310 391.791 311.791 390 314 390C316.209 390 318 391.791 318 394Z" fill="#DBDBDB"/>
</svg>
